<?xml version="1.0" encoding="UTF-8" standalone="no"?>
<!DOCTYPE svg PUBLIC "-//W3C//DTD SVG 1.1//EN"
 "http://www.w3.org/Graphics/SVG/1.1/DTD/svg11.dtd">
<!-- Generated by graphviz version 2.38.0 (20140413.2041)
 -->
<!-- Title: models_diagram Pages: 1 -->
<svg width="918pt" height="318pt"
 viewBox="0.00 0.00 918.34 318.00" xmlns="http://www.w3.org/2000/svg" xmlns:xlink="http://www.w3.org/1999/xlink">
<g id="graph0" class="graph" transform="scale(1 1) rotate(0) translate(4 314)">
<title>models_diagram</title>
<polygon fill="none" stroke="none" points="-4,4 -4,-314 914.343,-314 914.343,4 -4,4"/>
<!-- _diagram_info -->
<g id="node1" class="node"><title>_diagram_info</title>
<text text-anchor="start" x="8" y="-281.1" font-family="Times,serif" font-size="13.00">Models diagram</text>
<text text-anchor="start" x="8" y="-267.1" font-family="Times,serif" font-size="13.00">Date: Aug 31 2017 &#45; 12:30</text>
<text text-anchor="start" x="8" y="-253.1" font-family="Times,serif" font-size="13.00">Migration version: 20170831145300</text>
<text text-anchor="start" x="8" y="-239.1" font-family="Times,serif" font-size="13.00">Generated by RailRoady 1.5.3</text>
<text text-anchor="start" x="8" y="-225.1" font-family="Times,serif" font-size="13.00">http://railroady.prestonlee.com</text>
</g>
<!-- User -->
<g id="node2" class="node"><title>User</title>
<path fill="none" stroke="black" d="M244,-203.5C244,-203.5 464,-203.5 464,-203.5 470,-203.5 476,-209.5 476,-215.5 476,-215.5 476,-297.5 476,-297.5 476,-303.5 470,-309.5 464,-309.5 464,-309.5 244,-309.5 244,-309.5 238,-309.5 232,-303.5 232,-297.5 232,-297.5 232,-215.5 232,-215.5 232,-209.5 238,-203.5 244,-203.5"/>
<text text-anchor="middle" x="354" y="-294.3" font-family="Times,serif" font-size="14.00">User</text>
<polyline fill="none" stroke="black" points="232,-286.5 476,-286.5 "/>
<text text-anchor="start" x="240" y="-271.3" font-family="Times,serif" font-size="14.00">id :bigint</text>
<text text-anchor="start" x="240" y="-256.3" font-family="Times,serif" font-size="14.00">name :character varying</text>
<text text-anchor="start" x="240" y="-241.3" font-family="Times,serif" font-size="14.00">email :character varying</text>
<text text-anchor="start" x="240" y="-226.3" font-family="Times,serif" font-size="14.00">created_at :timestamp without time zone</text>
<text text-anchor="start" x="240" y="-211.3" font-family="Times,serif" font-size="14.00">updated_at :timestamp without time zone</text>
</g>
<!-- Item -->
<g id="node4" class="node"><title>Item</title>
<path fill="none" stroke="black" d="M375,-0.5C375,-0.5 595,-0.5 595,-0.5 601,-0.5 607,-6.5 607,-12.5 607,-12.5 607,-154.5 607,-154.5 607,-160.5 601,-166.5 595,-166.5 595,-166.5 375,-166.5 375,-166.5 369,-166.5 363,-160.5 363,-154.5 363,-154.5 363,-12.5 363,-12.5 363,-6.5 369,-0.5 375,-0.5"/>
<text text-anchor="middle" x="485" y="-151.3" font-family="Times,serif" font-size="14.00">Item</text>
<polyline fill="none" stroke="black" points="363,-143.5 607,-143.5 "/>
<text text-anchor="start" x="371" y="-128.3" font-family="Times,serif" font-size="14.00">id :bigint</text>
<text text-anchor="start" x="371" y="-113.3" font-family="Times,serif" font-size="14.00">name :character varying</text>
<text text-anchor="start" x="371" y="-98.3" font-family="Times,serif" font-size="14.00">created_at :timestamp without time zone</text>
<text text-anchor="start" x="371" y="-83.3" font-family="Times,serif" font-size="14.00">updated_at :timestamp without time zone</text>
<text text-anchor="start" x="371" y="-68.3" font-family="Times,serif" font-size="14.00">serial_num :integer</text>
<text text-anchor="start" x="371" y="-53.3" font-family="Times,serif" font-size="14.00">size :integer</text>
<text text-anchor="start" x="371" y="-38.3" font-family="Times,serif" font-size="14.00">description :text</text>
<text text-anchor="start" x="371" y="-23.3" font-family="Times,serif" font-size="14.00">category_id :bigint</text>
<text text-anchor="start" x="371" y="-8.3" font-family="Times,serif" font-size="14.00">user_id :bigint</text>
</g>
<!-- User&#45;&gt;Item -->
<g id="edge1" class="edge"><title>User&#45;&gt;Item</title>
<path fill="none" stroke="#3f42ee" d="M399.083,-196.651C404.529,-189.542 410.185,-182.159 415.877,-174.729"/>
<ellipse fill="none" stroke="#3f42ee" cx="396.449" cy="-200.09" rx="4.00002" ry="4.00002"/>
<polygon fill="#3f42ee" stroke="#3f42ee" points="415.979,-174.597 425.632,-169.395 419.019,-170.627 422.06,-166.658 422.06,-166.658 422.06,-166.658 419.019,-170.627 418.488,-163.922 415.979,-174.597 415.979,-174.597"/>
</g>
<!-- Category -->
<g id="node3" class="node"><title>Category</title>
<path fill="none" stroke="black" d="M506,-211C506,-211 726,-211 726,-211 732,-211 738,-217 738,-223 738,-223 738,-290 738,-290 738,-296 732,-302 726,-302 726,-302 506,-302 506,-302 500,-302 494,-296 494,-290 494,-290 494,-223 494,-223 494,-217 500,-211 506,-211"/>
<text text-anchor="middle" x="616" y="-286.8" font-family="Times,serif" font-size="14.00">Category</text>
<polyline fill="none" stroke="black" points="494,-279 738,-279 "/>
<text text-anchor="start" x="502" y="-263.8" font-family="Times,serif" font-size="14.00">id :bigint</text>
<text text-anchor="start" x="502" y="-248.8" font-family="Times,serif" font-size="14.00">name :character varying</text>
<text text-anchor="start" x="502" y="-233.8" font-family="Times,serif" font-size="14.00">created_at :timestamp without time zone</text>
<text text-anchor="start" x="502" y="-218.8" font-family="Times,serif" font-size="14.00">updated_at :timestamp without time zone</text>
</g>
<!-- Category&#45;&gt;Item -->
<g id="edge2" class="edge"><title>Category&#45;&gt;Item</title>
<path fill="none" stroke="#434ff5" d="M576.619,-204.095C569.446,-194.732 561.774,-184.716 554.035,-174.615"/>
<ellipse fill="none" stroke="#434ff5" cx="579.149" cy="-207.396" rx="4.00002" ry="4.00002"/>
<polygon fill="#434ff5" stroke="#434ff5" points="553.905,-174.444 551.395,-163.769 550.864,-170.475 547.823,-166.506 547.823,-166.506 547.823,-166.506 550.864,-170.475 544.251,-169.242 553.905,-174.444 553.905,-174.444"/>
</g>
<!-- ApplicationRecord -->
<g id="node5" class="node"><title>ApplicationRecord</title>
<ellipse fill="none" stroke="black" cx="833" cy="-256.5" rx="77.1866" ry="18"/>
<text text-anchor="middle" x="833" y="-252.8" font-family="Times,serif" font-size="14.00">ApplicationRecord</text>
</g>
</g>
</svg>
